<svg width="16" height="16" viewBox="0 0 16 16" fill="none" xmlns="http://www.w3.org/2000/svg">
<g clip-path="url(#clip0_219_411)">
<path d="M0.208496 7.68C0.208496 4.0596 0.208496 2.24942 1.26291 1.12471C2.31733 0 4.01437 0 7.4085 0H8.0085C11.4026 0 13.0997 0 14.1541 1.12471C15.2085 2.24942 15.2085 4.0596 15.2085 7.68V8.32C15.2085 11.9404 15.2085 13.7506 14.1541 14.8753C13.0997 16 11.4026 16 8.0085 16H7.4085C4.01437 16 2.31733 16 1.26291 14.8753C0.208496 13.7506 0.208496 11.9404 0.208496 8.32V7.68Z" fill="#0077FF"/>
<path d="M8.18972 11.5267C4.77097 11.5267 2.821 9.0267 2.73975 4.8667H4.45225C4.5085 7.92003 5.77096 9.21337 6.77097 9.48003V4.8667H8.38353V7.50003C9.37103 7.3867 10.4084 6.1867 10.7584 4.8667H12.3709C12.1022 6.49337 10.9772 7.69337 10.1772 8.1867C10.9772 8.5867 12.2585 9.63337 12.746 11.5267H10.9709C10.5897 10.26 9.63978 9.28003 8.38353 9.1467V11.5267H8.18972Z" fill="white"/>
</g>
<defs>
<clipPath id="clip0_219_411">
<rect width="15" height="16" fill="white" transform="translate(0.208496)"/>
</clipPath>
</defs>
</svg>
