<svg width="16" height="16" viewBox="0 0 16 16" fill="none" xmlns="http://www.w3.org/2000/svg">
<g clip-path="url(#clip0_219_414)">
<path d="M8 16C12.4183 16 16 12.4183 16 8C16 3.58172 12.4183 0 8 0C3.58172 0 0 3.58172 0 8C0 12.4183 3.58172 16 8 16Z" fill="url(#paint0_linear_219_414)"/>
<path fill-rule="evenodd" clip-rule="evenodd" d="M3.62118 7.91553C5.95334 6.89944 7.50848 6.22958 8.2866 5.90593C10.5083 4.98186 10.9699 4.82134 11.2708 4.81604C11.337 4.81487 11.485 4.83127 11.5808 4.90905C11.6618 4.97472 11.684 5.06343 11.6947 5.1257C11.7053 5.18796 11.7186 5.3298 11.7081 5.44063C11.5877 6.70562 11.0667 9.77541 10.8017 11.1922C10.6896 11.7917 10.4687 11.9927 10.255 12.0124C9.7904 12.0552 9.43762 11.7054 8.98766 11.4104C8.28356 10.9489 7.88578 10.6616 7.20233 10.2112C6.41248 9.69067 6.9245 9.4046 7.37464 8.93707C7.49244 8.81472 9.53937 6.95288 9.57899 6.78398C9.58394 6.76286 9.58854 6.68412 9.54176 6.64254C9.49499 6.60097 9.42595 6.61518 9.37613 6.62649C9.30551 6.64252 8.18069 7.38598 6.00168 8.85687C5.6824 9.07611 5.39321 9.18293 5.13411 9.17733C4.84847 9.17116 4.29901 9.01583 3.89054 8.88305C3.38954 8.7202 2.99136 8.63409 3.02603 8.35752C3.04409 8.21346 3.24247 8.06613 3.62118 7.91553Z" fill="white"/>
</g>
<defs>
<linearGradient id="paint0_linear_219_414" x1="8" y1="0" x2="8" y2="15.8813" gradientUnits="userSpaceOnUse">
<stop stop-color="#2AABEE"/>
<stop offset="1" stop-color="#229ED9"/>
</linearGradient>
<clipPath id="clip0_219_414">
<rect width="16" height="16" fill="white"/>
</clipPath>
</defs>
</svg>
